<?xml version="1.0" encoding="UTF-8" standalone="no"?><!DOCTYPE svg PUBLIC "-//W3C//DTD SVG 1.1//EN" "http://www.w3.org/Graphics/SVG/1.1/DTD/svg11.dtd"><svg width="100%" height="100%" viewBox="0 0 2684 1854" version="1.1" xmlns="http://www.w3.org/2000/svg" xmlns:xlink="http://www.w3.org/1999/xlink" xml:space="preserve" xmlns:serif="http://www.serif.com/" style="fill-rule:evenodd;clip-rule:evenodd;stroke-linejoin:round;stroke-miterlimit:2;"><path d="M1963.38,1347.48l-0,325.75c-0,24.625 57.292,25.875 64.041,25.875l656,0l-155.875,-175.833l155.875,-175.792l-720.041,0Z" style="fill:url(#_Linear1);"/><path d="M1941.46,1646.73c18.834,0.583 77.958,1 85.958,1l541.792,-0l-110.333,-124.458l110.333,-124.417l-555.626,-0l-72.124,247.875Zm648.541,10.333l-562.583,0c-0.833,0 -86.375,-0.458 -92.75,-1.375l-5.334,-0.749l77.209,-265.417l583.458,-0l-118.624,133.75l118.624,133.791Z" style="fill:url(#_Linear2);"/><path d="M2197.92,1510.48c7,67.958 -241.625,109.75 -234.334,166.167c-5.958,-46.208 -0.207,-261.75 -0.207,-261.75c-0,-0 232.499,54.958 234.541,95.583Z" style="fill:url(#_Linear3);"/><path d="M720.084,1340.98l-0,325.792c-0,24.625 -57.292,25.833 -64.083,25.833l-656.001,-0l155.876,-175.791l-155.876,-175.834l720.084,-0Z" style="fill:url(#_Linear4);"/><path d="M114.209,1641.23l541.792,0c6.624,0 55.666,-0.416 72.249,-1l-58.542,-247.875l-555.499,0l110.333,124.459l-110.333,124.416Zm541.792,9.333l-562.542,0l118.625,-133.749l-118.625,-133.792l583.624,-0l62.709,265.458l-5.083,0.709c-6.167,0.874 -75.292,1.374 -78.708,1.374Z" style="fill:url(#_Linear5);"/><path d="M485.5,1503.98c-6.958,67.958 241.583,109.75 234.292,166.167c6,-46.209 0.292,-261.75 0.292,-261.75c-0,-0 -232.501,55 -234.584,95.583Z" style="fill:url(#_Linear6);"/><path d="M2282.75,1153.9c-305.667,-100.667 -623.499,-151.042 -941.333,-151.042c-317.791,0 -635.583,50.375 -941.292,151.042c-13.416,4.416 -30.916,18.667 -23.75,39.416c36.167,105.709 72.418,211.459 108.584,317.167c-0,0 -1,-12.75 11.208,-18c41.125,-17.709 436.25,-144.667 845.25,-138c409.042,-6.667 803.792,121.209 845.292,138c13.083,4.417 11.208,18 11.208,18c36.209,-105.708 72.375,-211.458 108.583,-317.167c7.167,-20.749 -10.333,-35 -23.75,-39.416Z" style="fill:url(#_Linear7);"/><path d="M2271.29,1213.94c-302.708,-98.375 -617.667,-148.25 -936.041,-148.25c-318.376,0 -633.292,49.875 -936.042,148.25l-3,-9.083c303.749,-98.708 619.625,-148.708 939.042,-148.708c319.416,-0 635.291,50 938.999,148.708l-2.958,9.083Z" style="fill:url(#_Linear8);"/><path d="M2185.79,1447.31c-40.75,-13.625 -410.208,-133.458 -818.583,-133.458c-10.625,-0 -21.251,0.083 -31.916,0.25c-10.876,-0.167 -21.543,-0.25 -32.251,-0.25c-409.416,-0 -777.75,119.75 -818.375,133.375l-3.042,-9.041c40.792,-13.709 410.5,-133.917 821.417,-133.917c10.792,-0 21.5,0.125 32.251,0.291c10.54,-0.166 21.249,-0.291 31.916,-0.291c409.874,-0 780.666,120.291 821.666,134l-3.083,9.041Z" style="fill:url(#_Linear9);"/><path d="M2247,861.813l-3.541,-4.416c-28.459,-35.792 -38.667,-100.209 -22.626,-143.083l2,-5.292c16.001,-42.834 -2.124,-98.584 -40.291,-123.875l-4.666,-3.084c-38.168,-25.25 -67.792,-83.333 -65.792,-129.062l0.25,-5.65c2,-45.734 -32.458,-93.138 -76.542,-105.346l-5.459,-1.529c-44.082,-12.234 -90.207,-58.313 -102.457,-102.442l-1.501,-5.433c-12.208,-44.121 -59.625,-78.546 -105.333,-76.567l-5.666,0.259c-45.708,1.983 -103.793,-27.592 -129.083,-65.759l-3.084,-4.704c-25.25,-38.167 -81.001,-56.284 -123.834,-40.25l-5.332,2c-42.876,16.004 -107.21,5.8 -143.042,-22.679l-4.417,-3.529c-35.834,-28.496 -94.458,-28.496 -130.292,-0l-4.375,3.529c-35.833,28.479 -100.208,38.683 -143.083,22.679l-5.25,-2c-42.917,-16.034 -98.667,2.083 -123.958,40.25l-3.084,4.704c-25.25,38.167 -83.333,67.742 -129.041,65.759l-5.626,-0.259c-45.75,-1.979 -93.167,32.446 -105.375,76.567l-1.541,5.433c-12.209,44.129 -58.292,90.208 -102.375,102.442l-5.5,1.529c-44.125,12.208 -78.542,59.612 -76.542,105.346l0.25,5.65c2.001,45.729 -27.625,103.812 -65.791,129.062l-4.709,3.084c-38.166,25.291 -56.25,81.041 -40.25,123.875l2,5.292c16.041,42.874 5.833,107.291 -22.666,143.083l-3.501,4.416c-28.5,35.792 -28.5,94.417 0,130.25l3.501,4.417c28.499,35.833 38.707,100.208 22.666,143.083l-2,5.292c-16,42.875 2.084,98.584 40.25,123.875l4.709,3.083c38.166,25.292 67.792,83.334 65.791,129.042l-0.25,5.666c-2,45.709 32.417,93.168 76.542,105.376l5.5,1.5c44.083,12.25 90.166,58.333 102.375,102.417l1.541,5.458c12.208,44.124 59.625,78.541 105.375,76.583l5.626,-0.291c45.708,-1.959 103.791,27.625 129.041,65.791l3.084,4.708c25.291,38.167 81.041,56.25 123.958,40.25l5.25,-2c42.875,-15.999 107.25,-5.833 143.083,22.709l4.375,3.5c35.834,28.5 94.458,28.5 130.292,-0l4.417,-3.5c35.832,-28.542 100.166,-38.708 143.042,-22.709l5.332,2c42.833,16 98.584,-2.083 123.834,-40.25l3.084,-4.708c25.29,-38.166 83.375,-67.75 129.083,-65.791l5.666,0.291c45.708,1.958 93.125,-32.459 105.333,-76.583l1.501,-5.458c12.25,-44.084 58.375,-90.167 102.457,-102.417l5.459,-1.5c44.084,-12.208 78.542,-59.667 76.542,-105.376l-0.25,-5.666c-2,-45.708 27.624,-103.75 65.792,-129.042l4.666,-3.083c38.167,-25.291 56.292,-81 40.291,-123.875l-2,-5.292c-16.041,-42.875 -5.833,-107.25 22.626,-143.083l3.541,-4.417c28.542,-35.833 28.542,-94.458 0,-130.25Z" style="fill:url(#_Linear10);"/><path d="M1341.42,1770.94c-14.083,0 -27.458,-4.166 -36.625,-11.5l-4.125,-3.25c-30.083,-23.958 -74.459,-38.166 -118.791,-38.166c-21.583,-0 -41.417,3.333 -59.001,9.874l-5.083,1.918c-5.25,1.999 -11.208,2.999 -17.625,2.999c-20.667,0 -42.083,-10.541 -52.084,-25.625l-2.833,-4.374c-31.041,-46.793 -97.333,-81.959 -154.416,-81.959c-2,0 -4.042,0.042 -6,0.125l-5.459,0.25c-0.624,0.042 -1.208,0.042 -1.833,0.042c-24.208,-0 -51.083,-20.125 -57.458,-43.125l-1.417,-5.25c-15.708,-56.75 -70.417,-111.417 -127.208,-127.167l-5.292,-1.458c-23.542,-6.542 -44.083,-34.792 -43,-59.292l0.209,-5.5c2.582,-58.75 -32.542,-127.625 -81.626,-160.208l-4.666,-3.042c-20.292,-13.458 -31.126,-46.667 -22.5,-69.625l1.874,-5.083c20.626,-55.209 8.542,-131.584 -28.125,-177.709l-3.416,-4.249c-15.209,-19.126 -15.209,-54.084 0,-73.251l3.416,-4.25c36.667,-46.083 48.751,-122.499 28.125,-177.666l-1.874,-5.042c-8.626,-22.958 2.208,-56.208 22.624,-69.75l4.334,-2.875c49.292,-32.625 84.416,-101.541 81.834,-160.383l-0.209,-5.313c-1.083,-24.587 19.458,-52.862 43.042,-59.391l5.25,-1.438c56.791,-15.775 111.5,-70.454 127.208,-127.234l1.417,-5.199c6.375,-23 33.25,-43.142 57.5,-43.142c0.583,0 1.208,0.017 1.833,0.042l5.375,0.254c2,0.071 4.042,0.113 6.083,0.113c57.042,-0 123.334,-35.167 154.25,-81.78l3,-4.654c9.959,-14.954 31.375,-25.5 52.042,-25.5c6.417,0 12.375,1.004 17.666,2.983l5.042,1.9c17.584,6.563 37.418,9.904 59.001,9.904c44.332,0 88.708,-14.228 118.666,-38.045l4.334,-3.45c9.083,-7.238 22.458,-11.417 36.541,-11.417c14.125,0 27.5,4.179 36.666,11.483l4.209,3.338c30,23.863 74.375,38.091 118.75,38.091c21.5,0 41.375,-3.341 58.959,-9.904l5.041,-1.875c5.375,-2.004 11.25,-3.008 17.667,-3.008c20.708,0 42.083,10.546 52.083,25.621l2.958,4.479c30.876,46.667 97.167,81.834 154.25,81.834c2.042,-0 4.042,-0.042 6.042,-0.113l5.458,-0.254c0.625,-0.025 1.209,-0.042 1.833,-0.042c24.209,0 51.042,20.142 57.417,43.096l1.459,5.292c15.75,56.733 70.458,111.433 127.208,127.187l5.209,1.438c23.624,6.545 44.166,34.804 43.082,59.291l-0.208,5.296c-2.583,58.959 32.5,127.875 81.667,160.417l4.625,3.041c20.292,13.459 31.125,46.709 22.542,69.667l-1.833,4.917c-20.709,55.292 -8.626,131.666 28.041,177.791l3.459,4.292c15.208,19.125 15.166,54.083 -0.084,73.25l-3.291,4.125c-36.751,46.25 -48.834,122.625 -28.209,177.792l1.958,5.208c8.542,22.833 -2.291,56.042 -22.708,69.584l-4.417,2.916c-49.25,32.584 -84.333,101.5 -81.791,160.333l0.291,5.542c1.042,24.333 -19.5,52.625 -43.124,59.167l-5.25,1.458c-56.709,15.75 -111.417,70.375 -127.167,127.167l-1.459,5.208c-6.375,23.042 -33.208,43.167 -57.417,43.167c-0.624,-0 -1.208,-0 -1.833,-0.042l-5.458,-0.25c-2,-0.083 -4,-0.125 -6.042,-0.125c-57.041,0 -123.333,35.166 -154.208,81.792l-3.083,4.625c-9.917,15 -31.292,25.541 -52,25.541c-6.417,0 -12.333,-1 -17.625,-2.999l-5.125,-1.918c-17.542,-6.541 -37.417,-9.874 -58.917,-9.874c-44.375,-0 -88.75,14.208 -118.709,38.041l-4.25,3.417c-9.166,7.292 -22.541,11.458 -36.666,11.458Z" style="fill:url(#_Linear11);"/><defs><linearGradient id="_Linear1" x1="0" y1="0" x2="1" y2="0" gradientUnits="userSpaceOnUse" gradientTransform="matrix(720.067,0,0,720.067,1963.38,1523.27)"><stop offset="0" style="stop-color:#ef3a40;stop-opacity:1"/><stop offset="0.1" style="stop-color:#ef3a40;stop-opacity:1"/><stop offset="0.2" style="stop-color:#dc272f;stop-opacity:1"/><stop offset="0.3" style="stop-color:#b51f24;stop-opacity:1"/><stop offset="0.4" style="stop-color:#a71d21;stop-opacity:1"/><stop offset="0.5" style="stop-color:#c32026;stop-opacity:1"/><stop offset="0.6" style="stop-color:#ed363c;stop-opacity:1"/><stop offset="0.7" style="stop-color:#ef373b;stop-opacity:1"/><stop offset="0.8" style="stop-color:#b01e23;stop-opacity:1"/><stop offset="0.9" style="stop-color:#9d1c1f;stop-opacity:1"/><stop offset="1" style="stop-color:#df2a32;stop-opacity:1"/></linearGradient><linearGradient id="_Linear2" x1="0" y1="0" x2="1" y2="0" gradientUnits="userSpaceOnUse" gradientTransform="matrix(660.663,0,0,660.663,1929.33,1523.31)"><stop offset="0" style="stop-color:#402213;stop-opacity:1"/><stop offset="0.1" style="stop-color:#74502d;stop-opacity:1"/><stop offset="0.2" style="stop-color:#c28e4c;stop-opacity:1"/><stop offset="0.4" style="stop-color:#8e6130;stop-opacity:1"/><stop offset="0.5" style="stop-color:#a07540;stop-opacity:1"/><stop offset="0.6" style="stop-color:#ddb068;stop-opacity:1"/><stop offset="0.8" style="stop-color:#f0e087;stop-opacity:1"/><stop offset="0.9" style="stop-color:#ae8d47;stop-opacity:1"/><stop offset="1" style="stop-color:#9c7735;stop-opacity:1"/></linearGradient><linearGradient id="_Linear3" x1="0" y1="0" x2="1" y2="0" gradientUnits="userSpaceOnUse" gradientTransform="matrix(237.19,0,0,237.19,1960.88,1545.77)"><stop offset="0" style="stop-color:#1d0005;stop-opacity:1"/><stop offset="0.1" style="stop-color:#1d0005;stop-opacity:1"/><stop offset="0.2" style="stop-color:#3c020b;stop-opacity:1"/><stop offset="0.4" style="stop-color:#8f181b;stop-opacity:1"/><stop offset="0.7" style="stop-color:#51000b;stop-opacity:1"/><stop offset="0.8" style="stop-color:#4a000b;stop-opacity:1"/><stop offset="0.9" style="stop-color:#961a21;stop-opacity:1"/><stop offset="1" style="stop-color:#ef3a46;stop-opacity:1"/></linearGradient><linearGradient id="_Linear4" x1="0" y1="0" x2="1" y2="0" gradientUnits="userSpaceOnUse" gradientTransform="matrix(720.075,0,0,720.075,0.000406901,1516.81)"><stop offset="0" style="stop-color:#8c171a;stop-opacity:1"/><stop offset="0.1" style="stop-color:#d22830;stop-opacity:1"/><stop offset="0.2" style="stop-color:#dc272f;stop-opacity:1"/><stop offset="0.3" style="stop-color:#b51f24;stop-opacity:1"/><stop offset="0.4" style="stop-color:#a71d21;stop-opacity:1"/><stop offset="0.5" style="stop-color:#c32026;stop-opacity:1"/><stop offset="0.6" style="stop-color:#ed363c;stop-opacity:1"/><stop offset="0.7" style="stop-color:#ef373b;stop-opacity:1"/><stop offset="0.8" style="stop-color:#b01e23;stop-opacity:1"/><stop offset="0.9" style="stop-color:#9d1c1f;stop-opacity:1"/><stop offset="1" style="stop-color:#df2a32;stop-opacity:1"/></linearGradient><linearGradient id="_Linear5" x1="0" y1="0" x2="1" y2="0" gradientUnits="userSpaceOnUse" gradientTransform="matrix(646.342,0,0,646.342,93.4587,1516.81)"><stop offset="0" style="stop-color:#402213;stop-opacity:1"/><stop offset="0.1" style="stop-color:#74502d;stop-opacity:1"/><stop offset="0.2" style="stop-color:#c28e4c;stop-opacity:1"/><stop offset="0.4" style="stop-color:#8e6130;stop-opacity:1"/><stop offset="0.5" style="stop-color:#a07540;stop-opacity:1"/><stop offset="0.6" style="stop-color:#ddb068;stop-opacity:1"/><stop offset="0.8" style="stop-color:#f0e087;stop-opacity:1"/><stop offset="0.9" style="stop-color:#ae8d47;stop-opacity:1"/><stop offset="1" style="stop-color:#9c7735;stop-opacity:1"/></linearGradient><linearGradient id="_Linear6" x1="0" y1="0" x2="1" y2="0" gradientUnits="userSpaceOnUse" gradientTransform="matrix(237.162,0,0,237.162,485.375,1539.27)"><stop offset="0" style="stop-color:#1d0005;stop-opacity:1"/><stop offset="0.1" style="stop-color:#1d0005;stop-opacity:1"/><stop offset="0.2" style="stop-color:#3c020b;stop-opacity:1"/><stop offset="0.4" style="stop-color:#8f181b;stop-opacity:1"/><stop offset="0.7" style="stop-color:#51000b;stop-opacity:1"/><stop offset="0.8" style="stop-color:#4a000b;stop-opacity:1"/><stop offset="0.9" style="stop-color:#961a21;stop-opacity:1"/><stop offset="1" style="stop-color:#ef3a46;stop-opacity:1"/></linearGradient><linearGradient id="_Linear7" x1="0" y1="0" x2="1" y2="0" gradientUnits="userSpaceOnUse" gradientTransform="matrix(1933.43,0,0,1933.43,374.709,1256.69)"><stop offset="0" style="stop-color:#8c171a;stop-opacity:1"/><stop offset="0.1" style="stop-color:#ee3539;stop-opacity:1"/><stop offset="0.2" style="stop-color:#c62026;stop-opacity:1"/><stop offset="0.3" style="stop-color:#ba2025;stop-opacity:1"/><stop offset="0.8" style="stop-color:#c12026;stop-opacity:1"/><stop offset="0.9" style="stop-color:#ef3e43;stop-opacity:1"/><stop offset="1" style="stop-color:#941a1d;stop-opacity:1"/></linearGradient><linearGradient id="_Linear8" x1="0" y1="0" x2="1" y2="0" gradientUnits="userSpaceOnUse" gradientTransform="matrix(1878.02,0,0,1878.02,396.209,1135.06)"><stop offset="0" style="stop-color:#402213;stop-opacity:1"/><stop offset="0.1" style="stop-color:#74502d;stop-opacity:1"/><stop offset="0.2" style="stop-color:#c28e4c;stop-opacity:1"/><stop offset="0.4" style="stop-color:#8e6130;stop-opacity:1"/><stop offset="0.5" style="stop-color:#a07540;stop-opacity:1"/><stop offset="0.6" style="stop-color:#ddb068;stop-opacity:1"/><stop offset="0.8" style="stop-color:#f0e087;stop-opacity:1"/><stop offset="0.9" style="stop-color:#ae8d47;stop-opacity:1"/><stop offset="1" style="stop-color:#9c7735;stop-opacity:1"/></linearGradient><linearGradient id="_Linear9" x1="0" y1="0" x2="1" y2="0" gradientUnits="userSpaceOnUse" gradientTransform="matrix(1707.27,0,0,1707.27,481.625,1375.81)"><stop offset="0" style="stop-color:#402213;stop-opacity:1"/><stop offset="0.1" style="stop-color:#74502d;stop-opacity:1"/><stop offset="0.2" style="stop-color:#c28e4c;stop-opacity:1"/><stop offset="0.4" style="stop-color:#8e6130;stop-opacity:1"/><stop offset="0.5" style="stop-color:#a07540;stop-opacity:1"/><stop offset="0.6" style="stop-color:#ddb068;stop-opacity:1"/><stop offset="0.8" style="stop-color:#f0e087;stop-opacity:1"/><stop offset="0.9" style="stop-color:#ae8d47;stop-opacity:1"/><stop offset="1" style="stop-color:#9c7735;stop-opacity:1"/></linearGradient><linearGradient id="_Linear10" x1="0" y1="0" x2="1" y2="0" gradientUnits="userSpaceOnUse" gradientTransform="matrix(1853.89,0,0,1853.89,414.5,926.938)"><stop offset="0" style="stop-color:#9c7735;stop-opacity:1"/><stop offset="0.1" style="stop-color:#ae8d47;stop-opacity:1"/><stop offset="0.2" style="stop-color:#e0ce7e;stop-opacity:1"/><stop offset="0.3" style="stop-color:#846038;stop-opacity:1"/><stop offset="0.4" style="stop-color:#ddb068;stop-opacity:1"/><stop offset="0.5" style="stop-color:#a07540;stop-opacity:1"/><stop offset="0.6" style="stop-color:#8e6130;stop-opacity:1"/><stop offset="0.7" style="stop-color:#a4763c;stop-opacity:1"/><stop offset="0.8" style="stop-color:#c8924c;stop-opacity:1"/><stop offset="0.9" style="stop-color:#976d3c;stop-opacity:1"/><stop offset="1" style="stop-color:#402213;stop-opacity:1"/></linearGradient><linearGradient id="_Linear11" x1="0" y1="0" x2="1" y2="0" gradientUnits="userSpaceOnUse" gradientTransform="matrix(31.827,1761.01,-1761.01,31.827,1325.75,53.8926)"><stop offset="0" style="stop-color:#941a1d;stop-opacity:1"/><stop offset="0.4" style="stop-color:#dc1f26;stop-opacity:1"/><stop offset="0.5" style="stop-color:#ea242a;stop-opacity:1"/><stop offset="0.6" style="stop-color:#ef363a;stop-opacity:1"/><stop offset="0.7" style="stop-color:#ef3940;stop-opacity:1"/><stop offset="0.8" style="stop-color:#d12329;stop-opacity:1"/><stop offset="1" style="stop-color:#8c171a;stop-opacity:1"/></linearGradient></defs></svg>