<svg width="439" height="439" viewBox="0 0 439 439" fill="none" xmlns="http://www.w3.org/2000/svg">
<g clip-path="url(#clip0)">
<path d="M414.41 24.123C398.333 8.042 378.963 0 356.315 0H82.2279C59.5799 0 40.2099 8.042 24.1259 24.123C8.04493 40.207 0.00292969 59.576 0.00292969 82.225V356.309C0.00292969 378.956 8.04493 398.327 24.1259 414.411C40.2099 430.495 59.5799 438.537 82.2279 438.537H356.312C378.96 438.537 398.33 430.495 414.407 414.411C430.491 398.327 438.533 378.957 438.533 356.309V82.225C438.532 59.576 430.49 40.204 414.41 24.123ZM359.159 332.874C355.162 341.628 346.169 349.245 332.182 355.72C318.192 362.195 305.769 365.432 294.917 365.432C291.871 365.432 288.634 365.197 285.209 364.721C281.783 364.242 278.885 363.769 276.506 363.293C274.128 362.817 270.983 361.962 267.085 360.723C263.18 359.489 260.37 358.534 258.663 357.869C256.945 357.205 253.807 356.015 249.242 354.303C244.673 352.585 241.815 351.538 240.68 351.165C209.465 339.738 178.959 319.137 149.173 289.351C119.387 259.558 98.7819 229.059 87.3609 197.849C86.9829 196.706 85.9359 193.85 84.2209 189.284C82.5089 184.719 81.3159 181.576 80.6499 179.865C79.9879 178.152 79.0349 175.344 77.7969 171.445C76.5599 167.542 75.7059 164.404 75.2289 162.022C74.7509 159.646 74.2789 156.745 73.8019 153.318C73.3259 149.891 73.0889 146.651 73.0889 143.608C73.0889 132.758 76.3259 120.339 82.7989 106.349C89.2709 92.361 96.8829 83.368 105.64 79.37C115.728 75.181 125.34 73.087 134.477 73.087C136.568 73.087 138.093 73.279 139.042 73.659C139.995 74.044 141.566 75.753 143.756 78.799C145.946 81.845 148.324 85.698 150.893 90.362C153.463 95.027 155.985 99.548 158.459 103.924C160.933 108.301 163.313 112.629 165.598 116.915C167.882 121.194 169.309 123.91 169.879 125.048C170.45 126.005 171.688 127.81 173.59 130.477C175.492 133.14 176.923 135.516 177.873 137.612C178.823 139.706 179.3 141.705 179.3 143.608C179.3 146.467 177.347 149.939 173.446 154.028C169.543 158.121 165.26 161.882 160.596 165.309C155.932 168.736 151.651 172.401 147.749 176.303C143.85 180.202 141.897 183.39 141.897 185.865C141.897 187.198 142.23 188.767 142.897 190.575C143.563 192.387 144.182 193.862 144.753 195.002C145.324 196.143 146.23 197.762 147.465 199.858C148.702 201.954 149.513 203.285 149.891 203.857C160.358 222.7 172.399 238.927 186.005 252.538C199.617 266.151 215.841 278.186 234.687 288.655C235.254 289.039 236.589 289.846 238.691 291.085C240.782 292.317 242.404 293.221 243.544 293.792C244.687 294.363 246.158 294.983 247.969 295.644C249.78 296.308 251.35 296.643 252.688 296.643C255.724 296.643 259.913 293.505 265.248 287.225C270.576 280.939 276.004 274.707 281.524 268.52C287.04 262.339 291.509 259.246 294.942 259.246C296.844 259.246 298.839 259.719 300.941 260.67C303.036 261.621 305.41 263.052 308.073 264.954C310.742 266.864 312.549 268.096 313.501 268.675L328.626 276.946C338.715 282.278 347.137 286.987 353.896 291.08C360.655 295.173 364.32 297.979 364.892 299.499C365.271 300.45 365.456 301.977 365.456 304.071C365.449 313.199 363.354 322.812 359.159 332.874Z" fill="#FF0000"/>
</g>
<defs>
<clipPath id="clip0">
<rect width="438.536" height="438.536" fill="white"/>
</clipPath>
</defs>
</svg>
